<?xml version="1.0" encoding="UTF-8" standalone="no"?>
<!-- Created with Inkscape (http://www.inkscape.org/) -->

<svg
	xmlns:dc="http://purl.org/dc/elements/1.1/"
	xmlns:cc="http://creativecommons.org/ns#"
	xmlns:rdf="http://www.w3.org/1999/02/22-rdf-syntax-ns#"
	xmlns:svg="http://www.w3.org/2000/svg"
	xmlns="http://www.w3.org/2000/svg"
	version="1.1"
	viewBox="0 0 1029.7598 159"
	id="Layer_1"
	xml:space="preserve">
	<metadata id="metadata35"><rdf:RDF><cc:Work rdf:about=""><dc:format>image/svg+xml</dc:format><dc:type rdf:resource="http://purl.org/dc/dcmitype/StillImage" /><dc:title></dc:title></cc:Work></rdf:RDF></metadata><defs id="defs33" />
	<rect width="1029.7598" height="159" x="0" y="-9.706531e-07" id="rect3" style="fill:#652d90" />
	<g id="g5">
		<path d="m 159,5 c 0,-2.8 -2.3,-5 -5,-5 H 5 C 2.3,0 0,2.3 0,5 v 149 c 0,2.8 2.3,5 5,5 h 149 c 2.8,0 5,-2.3 5,-5 V 5 z m -21.9,94.8 -18.7,-7.1 c -1.6,4.4 -4,8.3 -6.9,11.8 l 15.2,12.7 c -4.5,5.3 -9.8,9.8 -15.9,13.3 l -10,-17.2 c -3.9,2.3 -8.3,3.9 -13,4.7 l 3.4,19.6 c -3.4,0.6 -6.9,0.9 -10.4,0.9 -3.5,0 -6.9,-0.3 -10.3,-0.9 L 73.9,118 c -4.7,-0.8 -9,-2.4 -13,-4.7 l -10,17.2 c -6,-3.5 -11.4,-8 -15.9,-13.3 l 15.2,-12.8 c -3,-3.5 -5.4,-7.6 -7,-12 L 24.3,99.2 C 21.9,92.7 19,85.8 19,78.8 l 17.8,0 c 0,0 0,0 0,0 0,-4.8 2.9,-9.3 4.4,-13.6 L 23.9,58.4 c 2.4,-6.6 6.2,-12.6 10.7,-18 L 50,53.2 c 3,-3.5 6.6,-6.6 10.7,-8.9 L 51,27.1 C 57.1,23.6 63.6,21.2 70.5,20 L 74,39.6 c 2.3,-0.4 4.6,-0.6 7,-0.6 2.3,0 4.6,0.2 6.9,0.6 L 91.3,20 c 6.9,1.2 13.5,3.6 19.5,7.1 l -9.9,17.2 c 4,2.3 7.6,5.3 10.6,8.9 l 15.2,-12.8 c 4.5,5.3 8,11.4 10.4,18 l -18.7,7.5 c 1.5,4.2 2.4,6.8 2.4,14.2 h 19.9 c 0,4.9 -1.2,13.2 -3.6,19.7 z" id="path7" style="fill:#ffffff" />
		<path d="m 224,40.2 c 16.1,0 26,7.3 26,19.4 0,8.7 -5.2,15.3 -13.6,17.3 10.4,1.8 16.6,9.2 16.6,19.6 0,13.3 -10.7,21.3 -28.2,21.3 H 190.4 V 40.2 H 224 z m -20.6,32.1 h 19.9 c 8.3,0 13.3,-3.9 13.3,-10.4 0,-6.5 -5,-10.1 -13.3,-10.1 h -19.9 v 20.5 z m 0,33.8 h 19.9 c 10.2,0 16.3,-4 16.3,-11.3 0,-6.9 -6.1,-11 -16.3,-11 h -19.9 v 22.3 z" id="path9" style="fill:#ffffff" />
		<path d="m 313,105.9 v 11.9 H 266.4 V 40.2 h 13.1 v 65.7 H 313 z" id="path11" style="fill:#ffffff" />
		<path d="m 399,79 c 0,22.2 -17.9,39.3 -41.1,39.3 -23.1,0 -41.1,-17.2 -41.1,-39.3 0,-22.3 17.9,-39.1 41.1,-39.1 23.2,0 41.1,16.9 41.1,39.1 z m -68.9,0 c 0,15.4 12.7,27.6 27.9,27.6 15.2,0 27.6,-12.2 27.6,-27.6 0,-15.4 -12.4,-27.4 -27.6,-27.4 -15.2,0 -27.9,12 -27.9,27.4 z" id="path13" style="fill:#ffffff" />
		<path d="m 478.1,51.8 -7.6,9.5 c -5.6,-6.1 -13.7,-9.9 -21.6,-9.9 -15.5,0 -27.7,12 -27.7,27.2 0,15.2 12.2,27.4 27.7,27.4 7.8,0 15.7,-3.5 21.6,-9.2 l 7.8,8.6 c -7.9,7.8 -19.1,12.7 -30,12.7 -22.7,0 -40.3,-17.2 -40.3,-39.4 0,-22 17.8,-39 40.8,-39 10.8,0.2 21.8,4.7 29.3,12.1 z" id="path15" style="fill:#ffffff" />
		<path d="M 513.3,83.5 500.1,98 v 19.7 H 487 V 40.2 h 13.1 v 40.1 l 37,-40.1 h 15.4 l -30,33.1 32,44.4 H 538.8 L 513.3,83.5 z" id="path17" style="fill:#ffffff" />
		<path d="m 628.1,51.8 -7.6,9.5 c -5.6,-6.1 -13.7,-9.9 -21.6,-9.9 -15.5,0 -27.7,12 -27.7,27.2 0,15.2 12.2,27.4 27.7,27.4 7.8,0 15.7,-3.5 21.6,-9.2 l 7.8,8.6 c -7.9,7.8 -19.1,12.7 -30,12.7 -22.7,0 -40.3,-17.2 -40.3,-39.4 0,-22 17.8,-39 40.8,-39 10.8,0.2 21.8,4.7 29.3,12.1 z" id="path19" style="fill:#0b8ed8" />
		<path d="m 673.3,117.7 h -13 V 92.4 L 631.4,40.2 h 13.2 L 666.8,78 688.5,40.2 h 13.3 l -28.5,51.7 v 25.8 z" id="path21" style="fill:#0b8ed8" />
		<path d="m 740.8,40.2 c 19.5,0 30.7,9.6 30.7,26.5 0,17.5 -11.2,27.7 -30.7,27.7 H 723 v 23.4 H 709.9 V 40.2 h 30.9 z m -17.9,42.4 h 17.3 c 12,0 18.7,-5.1 18.7,-15.6 0,-10.2 -6.8,-15.1 -18.7,-15.1 h -17.3 v 30.7 z" id="path23" style="fill:#0b8ed8" />
		<path d="M 836.3,117.7 V 85.6 h -41.1 v 32.1 H 782.1 V 40.2 h 13.1 v 33.7 h 41.1 V 40.2 h 13.1 v 77.5 h -13.1 z" id="path25" style="fill:#0b8ed8" /><path d="m 878.4,51.9 v 20.9 h 37.9 V 84.5 H 878.4 V 106 H 922 v 11.7 H 865.3 V 40.2 h 55.4 v 11.7 h -42.3 z" id="path27" style="fill:#0b8ed8" />
		<path d="m 970.8,94.3 c -1.1,0.1 -2.3,0.1 -3.5,0.1 h -18.4 v 23.4 H 935.8 V 40.2 h 31.5 c 19.8,0 31.2,9.6 31.2,26.5 0,12.4 -5.8,21.2 -16.1,25.1 l 17.4,25.9 H 985 L 970.8,94.3 z m -3.5,-11.7 c 12,0 18.8,-5.1 18.8,-15.6 0,-10.2 -6.9,-15.1 -18.8,-15.1 h -18.4 v 30.7 h 18.4 z" id="path29" style="fill:#0b8ed8" />
	</g>
</svg>
